# AST/ASF file generated using VICON BodyLanguage
# -----------------------------------------------
:version 1.10
:name VICON
:units
  mass 1.0
  length 0.45
  angle deg
:documentation
   .ast/.asf automatically generated from VICON data using
   VICON BodyBuilder and BodyLanguage model FoxedUp or BRILLIANT.MOD
:root
   order TX TY TZ RX RY RZ
   axis XYZ
   position 0 0 0  
   orientation 0 -0 0 
:bonedata
  begin
     id 1 
     name lhipjoint
     direction 0.515797 -0.759363 0.396637 
     length 2.47888 
     axis 0 -0 0  XYZ
  end
  begin
     id 2 
     name lfemur
     direction 0.34202 -0.939693 0  
     length 6.81885  
     axis 0 -0 20  XYZ
    dof rx ry rz
    limits (-160.0 20.0)
           (-70.0 70.0)
           (-60.0 70.0)
  end
  begin
     id 3 
     name ltibia
     direction 0.342037 -0.939687 0   
     length 7.89258   
     axis 0 -0 20   XYZ
    dof rx
    limits (-10.0 170.0)
  end
  begin
     id 4 
     name lfoot
     direction 0.173497 -0.476678 0.861787   
     length 2.51543   
     axis -90 -1.13533e-015 20   XYZ
    dof rx rz
    limits (-45.0 90.0)
           (-70.0 20.0)
  end
  begin
     id 5 
     name ltoes
     direction 1.53564e-011 -4.21897e-011 1   
     length 1.21388   
     axis -90 -1.13533e-015 20   XYZ
    dof rx
    limits (-90.0 20.0)
  end
  begin
     id 6 
     name rhipjoint
     direction -0.489454 -0.772941 0.403729   
     length 2.43534  
     axis 0 -0 0  XYZ 
  end
  begin
     id 7 
     name rfemur
     direction -0.34202 -0.939693 0   
     length 7.10357   
     axis 0 -0 -20   XYZ
    dof rx ry rz
    limits (-160.0 20.0)
           (-70.0 70.0)
           (-70.0 60.0)
  end
  begin
     id 8 
     name rtibia
     direction -0.34202 -0.939693 0   
     length 9.16127   
     axis 0 -0 -20   XYZ
    dof rx
    limits (-10.0 170.0)
 end
 begin
     id 9 
     name rfoot
     direction -0.270974 -0.748671 0.605033   
     length 1.74894  
     axis -90 1.13533e-015 -20   XYZ
    dof rx rz
    limits (-45.0 90.0)
           (-20.0 70.0)
  end
  begin
     id 10 
     name rtoes
     direction -1.53557e-011 -4.21759e-011 1   
     length 0.787585   
     axis -90 1.13533e-015 -20   XYZ
    dof rx
    limits (-90.0 20.0)
  end
  begin
     id 11 
     name lowerback
     direction -0.0140249 0.999561 0.0260968   
     length 2.16963   
     axis 0 -0 0   XYZ
    dof rx ry rz
    limits (-20.0 45.0)
           (-30.0 30.0)
           (-30.0 30.0)
  end
  begin
     id 12 
     name upperback
     direction 0.00860018 0.999959 -0.002711   
     length 2.1726   
     axis 0 -0 0   XYZ
    dof rx ry rz
    limits (-20.0 45.0)
           (-30.0 30.0)
           (-30.0 30.0)
  end
  begin
     id 13 
     name thorax
     direction 0.015211 0.999782 -0.0143191   
     length 2.17061   
     axis 0 -0 0   XYZ
    dof rx ry rz
    limits (-20.0 45.0)
           (-30.0 30.0)
           (-30.0 30.0)
  end
  begin
     id 14 
     name lowerneck
     direction -0.0140143 0.999447 0.030145   
     length 2.26749   
     axis 0 -0 0   XYZ
    dof rx ry rz
    limits (-20.0 45.0)
           (-30.0 30.0)
           (-30.0 30.0)
  end
  begin
     id 15 
     name upperneck
     direction 0.118062 0.961438 -0.248392   
     length 2.22728   
     axis 0 -0 0   XYZ
    dof rx ry rz
    limits (-20.0 45.0)
           (-30.0 30.0)
           (-30.0 30.0)
  end
  begin
     id 16
     name head
     direction 0.0431885 0.9954 -0.085514  
     length 2.28786  
     axis 0 -0 0   XYZ
    dof rx ry rz
    limits (-20.0 45.0)
           (-30.0 30.0)
           (-30.0 30.0)
  end
  begin
     id 17 
     name lclavicle
     direction 0.912126 0.409548 0.0172323  
     length 4.31571  
     axis 0 -0 0   XYZ
    dof ry rz
    limits (-20.0 10.0)
           (0.0 20.0)
  end
  begin
     id 18 
     name lhumerus
     direction 1 -4.48977e-011 1.93091e-027   
     length 5.13658   
     axis 180 -30 -90   XYZ
    dof rx ry rz
    limits (-60.0 90.0)
           (-90.0 90.0)
           (-90.0 90.0)
  end
  begin
     id 19
     name lradius
     direction 1 -4.48916e-011 6.84018e-027   
     length 3.22473   
     axis 180 -30 -90   XYZ
    dof rx
    limits (-10.0 170.0)
  end
  begin
     id 20
     name lwrist
     direction 1 -4.48987e-011 7.01981e-027   
     length 1.61236   
     axis -4.37994e-015 90 90   XYZ
    dof ry
    limits (-180.0 0.0)
 end
  begin
     id 21 
     name lhand
     direction 1 -4.49037e-011 1.40335e-026   
     length 0.936406   
     axis -8.96029e-015 90 90   XYZ
    dof rx rz
    limits (-90.0 90.0)
           (-45.0 45.0)
  end
  begin
     id 22 
     name lfingers
     direction 1 -4.48886e-011 2.8104e-026   
     length 0.754955   
     axis -1.79203e-014 90 90   XYZ
    dof rx
    limits (0.0 90.0)
  end
  begin
     id 23
     name lthumb
     direction 0.707107 -6.34937e-011 0.707107   
     length 1.08397   
     axis -90 45 -4.48555e-014   XYZ
    dof rx rz
    limits (-45.0 45.0)
           (-45.0 45.0)
  end
  begin
     id 24 
     name rclavicle
     direction -0.947962 0.317997 0.0156638   
     length 4.86918  
     axis 0 -0 0   XYZ 
    dof ry rz
    limits (-10.0 20.0)
           (-20.0 0.0)
  end
  begin
     id 25 
     name rhumerus
     direction -1 -4.48951e-011 2.80534e-018  
     length 5.60911   
     axis 180 30 90   XYZ
    dof rx ry rz
    limits (-90.0 60.0)
           (-90.0 90.0)
           (-90.0 90.0)
  end
  begin
     id 26 
     name rradius
     direction -1 -4.4898e-011 2.11315e-027   
     length 3.38704   
     axis 180 30 90   XYZ
    dof rx
    limits (-10.0 170.0)
  end
  begin
     id 27 
     name rwrist
     direction -1 -4.48933e-011 7.02314e-027   
     length 1.69352   
     axis -4.37994e-015 -90 -90   XYZ
    dof ry
    limits (-180.0 0.0)
  end
  begin
     id 28
     name rhand
     direction -1 -4.48937e-011 1.40458e-026   
     length 0.755878   
     axis -8.96029e-015 -90 -90   XYZ
    dof rx rz
    limits (-90.0 90.0)
           (-45.0 45.0)
  end
  begin
     id 29
     name rfingers
     direction -1 -4.4901e-011 2.80737e-026   
     length 0.609409   
     axis -1.79203e-014 -90 -90   XYZ
    dof rx
    limits (0.0 90.0)
  end
  begin
     id 30
     name rthumb
     direction -0.707107 -6.34968e-011 0.707107   
     length 0.874992   
     axis -90 -45 4.48555e-014   XYZ
    dof rx rz
    limits (-45.0 45.0)
           (-45.0 45.0)
  end
:hierarchy
  begin
    root lhipjoint rhipjoint lowerback
    lhipjoint lfemur
    lfemur ltibia
    ltibia lfoot
    lfoot ltoes
    rhipjoint rfemur
    rfemur rtibia
    rtibia rfoot
    rfoot rtoes
    lowerback upperback
    upperback thorax
    thorax lowerneck lclavicle rclavicle
    lowerneck upperneck
    upperneck head
    lclavicle lhumerus
    lhumerus lradius
    lradius lwrist
    lwrist lhand lthumb
    lhand lfingers
    rclavicle rhumerus
    rhumerus rradius
    rradius rwrist
    rwrist rhand rthumb
    rhand rfingers
  end

#!OML:ASF C:\ViconDB\ViconDB\414\Spring2016\041811\Spring2016.ASF
:FULLY-SPECIFIED
:DEGREES
16
root 9.5602 18.2288 1.86042 -176.172 -2.38986 -177.838
lowerback -5.00661 1.45519 -3.50354
upperback -0.373265 2.10895 0.193704
thorax 2.28758 1.007 2.3069
lowerneck -11.8264 2.17568 -3.03179
upperneck 21.6812 0.259457 10.4019
head 8.66048 0.531355 4.01753
rclavicle 2.69353e-014 8.74653e-015
rhumerus -38.7429 -14.7021 -91.7069
rradius 36.0046
rwrist 37.3495
rhand -34.7627 -13.6176
rfingers 7.12502
rthumb -7.91578 -43.4494
lclavicle 2.69353e-014 8.74653e-015
lhumerus -36.6774 -0.951481 89.3678
lradius 22.9189
lwrist -38.1023
lhand -27.5601 15.4506
lfingers 7.12502
lthumb -0.961042 45.4282
rfemur 166.56 60.201 -164.053
rtibia 30.9704
rfoot -69.9674 -44.5413
rtoes -5.48646e-014
lfemur -7.77359 -6.45005 -20.2333
ltibia 24.5761
lfoot -21.932 3.10104
ltoes -7.10158e-014
17
root 9.56645 18.2273 1.85651 -176.214 -2.46072 -177.871
lowerback -5.01456 1.44542 -3.55066
upperback -0.348325 2.09972 0.204616
thorax 2.31627 1.00124 2.3447
lowerneck -11.7025 2.13487 -3.06786
upperneck 21.5758 0.243677 10.3273
head 8.60252 0.512177 3.99098
rclavicle 4.63417e-015 4.77083e-015
rhumerus -38.7763 -14.7135 -91.6669
rradius 36.011
rwrist 37.4665
rhand -34.7693 -13.7063
rfingers 7.12502
rthumb -7.92216 -43.5379
lclavicle 4.63417e-015 4.77083e-015
lhumerus -36.7016 -1.03818 89.4219
lradius 22.9433
lwrist -38.1046
lhand -27.512 15.5826
lfingers 7.12502
lthumb -0.914622 45.5604
rfemur 166.42 60.522 -164.167
rtibia 30.9857
rfoot -70.2585 -44.4989
rtoes 3.89618e-014
lfemur -7.70926 -6.47355 -20.2445
ltibia 24.5695
lfoot -21.9492 3.05477
ltoes -8.1862e-014
18
root 9.57011 18.227 1.85462 -176.187 -2.46754 -177.868
lowerback -5.01358 1.44049 -3.54931
upperback -0.36999 2.09175 0.222823
thorax 2.29326 0.997802 2.36173
lowerneck -11.6587 2.12979 -3.15498
upperneck 21.5807 0.225582 10.4255
head 8.59589 0.502749 4.03698
rclavicle 3.11222e-014 6.36111e-015
rhumerus -38.7954 -14.631 -91.6312
rradius 35.9809
rwrist 37.4186
rhand -34.7496 -13.6655
rfingers 7.12502
rthumb -7.90314 -43.4977
lclavicle 3.11222e-014 6.36111e-015
lhumerus -36.7387 -0.981519 89.4163
lradius 22.9278
lwrist -38.1754
lhand -27.4907 15.7494
lfingers 7.12502
lthumb -0.894039 45.7273
rfemur 166.48 60.7307 -164.084
rtibia 31.0006
rfoot -70.5449 -44.4565
rtoes 3.49861e-014
lfemur -7.7347 -6.42702 -20.2308
ltibia 24.569
lfoot -21.8453 3.06214
ltoes -2.68608e-014
19
root 9.57278 18.2273 1.85278 -176.153 -2.47424 -177.861
lowerback -5.0328 1.44526 -3.52098
upperback -0.38572 2.09648 0.224494
thorax 2.28843 1.00054 2.34819
lowerneck -11.6936 2.14903 -2.98716
upperneck 21.6757 0.246161 10.2508
head 8.63569 0.509972 3.95358
rclavicle 1.99157e-014 7.95139e-016
rhumerus -38.8278 -14.5812 -91.6316
rradius 35.9751
rwrist 37.4137
rhand -34.7498 -13.7048
rfingers 7.12502
rthumb -7.90331 -43.5371
lclavicle 1.99157e-014 7.95139e-016
lhumerus -36.7602 -0.914055 89.3741
lradius 22.9331
lwrist -38.2255
lhand -27.4942 15.634
lfingers 7.12502
lthumb -0.897396 45.6119
rfemur 166.573 60.9873 -163.971
rtibia 31.0149
rfoot -70.8975 -44.4059
rtoes -2.38542e-015
lfemur -7.77472 -6.43461 -20.2119
ltibia 24.5726
lfoot -21.9376 3.07282
ltoes 1.03244e-014
20
root 9.57559 18.2279 1.85141 -176.129 -2.49474 -177.908
lowerback -5.05314 1.45927 -3.53025
upperback -0.379479 2.11699 0.201944
thorax 2.30543 1.01026 2.33224
lowerneck -11.6641 2.11873 -3.1681
upperneck 21.6315 0.189781 10.4744
head 8.61664 0.487669 4.05387
rclavicle 2.74696e-014 -1.47101e-014
rhumerus -38.8532 -14.6979 -91.6172
rradius 35.9709
rwrist 37.5128
rhand -34.7591 -13.7607
rfingers 7.12502
rthumb -7.91224 -43.5926
lclavicle 2.74696e-014 -1.47101e-014
lhumerus -36.7574 -0.95985 89.3833
lradius 22.9614
lwrist -38.1843
lhand -27.4682 15.7556
lfingers 7.12502
lthumb -0.872321 45.7336
rfemur 166.63 61.2684 -163.95
rtibia 31.0296
rfoot -71.205 -44.3291
rtoes -1.04163e-013
lfemur -7.80862 -6.45498 -20.2637
ltibia 24.5799
lfoot -21.8702 3.12065
ltoes -1.23992e-014
21
root 9.57949 18.2282 1.84789 -176.098 -2.47655 -177.91
lowerback -5.10257 1.47649 -3.49774
upperback -0.372112 2.14044 0.184761
thorax 2.34101 1.02145 2.2996
lowerneck -11.6551 2.10735 -3.17029
upperneck 21.613 0.166929 10.5081
head 8.61041 0.47925 4.06277
rclavicle 1.32937e-015 1.82882e-014
rhumerus -38.8506 -14.5615 -91.6879
rradius 35.9439
rwrist 37.404
rhand -34.8225 -13.7534
rfingers 7.12502
rthumb -7.97342 -43.583
lclavicle 1.32937e-015 1.82882e-014
lhumerus -36.7631 -1.05769 89.3877
lradius 23.0143
lwrist -38.0124
lhand -27.4658 15.7628
lfingers 7.12502
lthumb -0.869963 45.7407
rfemur 166.708 61.5221 -163.861
rtibia 31.0397
rfoot -71.5161 -44.2512
rtoes 1.87653e-013
lfemur -7.83483 -6.48231 -20.2677
ltibia 24.59
lfoot -21.8914 3.20728
ltoes -2.28602e-015
22
root 9.58261 18.2278 1.84564 -176.08 -2.51549 -177.924
lowerback -5.10447 1.47201 -3.51355
upperback -0.375272 2.13505 0.198061
thorax 2.33808 1.01866 2.3218
lowerneck -11.6225 2.06777 -3.25988
upperneck 21.576 0.123901 10.5552
head 8.59404 0.455458 4.08832
rclavicle -2.168e-014 2.0276e-014
rhumerus -38.8782 -14.6596 -91.5995
rradius 35.901
rwrist 37.5344
rhand -34.8383 -13.7095
rfingers 7.12502
rthumb -7.98871 -43.5385
lclavicle -2.168e-014 2.0276e-014
lhumerus -36.7663 -1.06011 89.4198
lradius 23.0198
lwrist -37.9094
lhand -27.5086 15.7244
lfingers 7.12502
lthumb -0.911305 45.7022
rfemur 166.748 61.8985 -163.811
rtibia 31.052
rfoot -71.9454 -44.1482
rtoes 1.86062e-013
lfemur -7.85285 -6.63237 -20.2878
ltibia 24.597
lfoot -21.9403 3.34817
ltoes 2.96438e-014
